<?xml version="1.0" encoding="utf-8"?>
<!-- Generator: Adobe Illustrator 15.0.0, SVG Export Plug-In . SVG Version: 6.00 Build 0)  -->
<!DOCTYPE svg PUBLIC "-//W3C//DTD SVG 1.1//EN" "http://www.w3.org/Graphics/SVG/1.1/DTD/svg11.dtd">
<svg version="1.1"
	 id="svg3201" xmlns:inkscape="http://www.inkscape.org/namespaces/inkscape" inkscape:version="0.46" xmlns:sodipodi="http://sodipodi.sourceforge.net/DTD/sodipodi-0.dtd" sodipodi:version="0.32" sodipodi:docname="man.svg" inkscape:output_extension="org.inkscape.output.svg.inkscape" xmlns:svg="http://www.w3.org/2000/svg" xmlns:rdf="http://www.w3.org/1999/02/22-rdf-syntax-ns#" xmlns:cc="http://creativecommons.org/ns#" xmlns:dc="http://purl.org/dc/elements/1.1/"
	 xmlns="http://www.w3.org/2000/svg" xmlns:xlink="http://www.w3.org/1999/xlink" x="0px" y="0px" width="263.65px"
	 height="580.838px" viewBox="0 0 263.65 580.838" enable-background="new 0 0 263.65 580.838" xml:space="preserve">
<sodipodi:namedview  inkscape:pageshadow="2" inkscape:zoom="0.98994949" bordercolor="#666666" pagecolor="#ffffff" inkscape:window-width="1221" inkscape:window-x="-4" id="base" inkscape:window-height="990" inkscape:cx="131.84537" inkscape:pageopacity="0.0" borderopacity="1.0" inkscape:window-y="-4" inkscape:cy="291.32671" inkscape:document-units="px" inkscape:current-layer="layer1" showgrid="false">
	</sodipodi:namedview>
<g id="layer1" transform="translate(-225.31572,-228.8624)" inkscape:groupmode="layer" inkscape:label="Calque 1">
	
		<path id="path3724" sodipodi:nodetypes="ccccccccccccccccccccccsssc" stroke="#000000" stroke-width="1.5" stroke-linecap="round" stroke-linejoin="round" d="
		M428.917,601.814v210.168h-64.193V602.582H349.59v209.399h-64.192V601.814V421.849h-16.766v154.658h-43.316V420.602
		c0-25.528,21.466-53.526,47.491-53.526h168.667c26.519,0,47.492,29.563,47.492,55.574v153.858h-43.316V421.849h-16.732V601.814z
		 M357.32,228.862c-38.459,0-69.672,30.615-69.672,68.339c0,37.723,31.213,68.338,69.672,68.338
		c38.458,0,69.671-30.616,69.671-68.338C426.991,259.478,395.778,228.862,357.32,228.862z"/>
</g>
</svg>
